<svg xmlns="http://www.w3.org/2000/svg" width="1320" height="2868" viewBox="0 0 1320 2868" role="img" aria-labelledby="title"><title id="title">CKare Care fictional iPhone listing frame</title><rect width="1320" height="2868" fill="#F7F3EA"/><rect width="1320" height="270" fill="#287263"/><text x="100" y="130" fill="#F7F3EA" font-family="Arial,sans-serif" font-size="42">9:41</text><text x="100" y="220" fill="#F7F3EA" font-family="Georgia,serif" font-size="74" font-weight="700">CKare Care</text><text x="100" y="385" fill="#58706A" font-family="Arial,sans-serif" font-size="38">TODAY · FICTIONAL LOCAL DEMO</text><text x="100" y="475" fill="#17342F" font-family="Georgia,serif" font-size="78" font-weight="700">Care for Maya</text><text x="100" y="545" fill="#58706A" font-family="Arial,sans-serif" font-size="42">Coverage details, clearly separated.</text><rect x="80" y="640" width="1160" height="500" rx="42" fill="#287263"/><text x="140" y="745" fill="#F7F3EA" font-family="Arial,sans-serif" font-size="34">FICTIONAL COVERAGE CHECK</text><text x="140" y="850" fill="#F7F3EA" font-family="Georgia,serif" font-size="68" font-weight="700">Ready to request care</text><text x="140" y="930" fill="#D8E5D5" font-family="Arial,sans-serif" font-size="40">Authorization is shown separately.</text><rect x="140" y="985" width="500" height="94" rx="47" fill="#E86F51"/><text x="188" y="1046" fill="#fff" font-family="Arial,sans-serif" font-size="35" font-weight="700">Find care</text><text x="100" y="1260" fill="#17342F" font-family="Georgia,serif" font-size="60" font-weight="700">Care plan</text><rect x="80" y="1330" width="1160" height="250" rx="38" fill="#fff" stroke="#D8D2C6" stroke-width="4"/><circle cx="170" cy="1455" r="48" fill="#E86F51"/><text x="255" y="1435" fill="#17342F" font-family="Arial,sans-serif" font-size="43" font-weight="700">Routine visit request</text><text x="255" y="1500" fill="#58706A" font-family="Arial,sans-serif" font-size="34">Fictional availability only</text><rect x="80" y="1630" width="1160" height="250" rx="38" fill="#fff" stroke="#D8D2C6" stroke-width="4"/><circle cx="170" cy="1755" r="48" fill="#287263"/><text x="255" y="1735" fill="#17342F" font-family="Arial,sans-serif" font-size="43" font-weight="700">Coverage help</text><text x="255" y="1800" fill="#58706A" font-family="Arial,sans-serif" font-size="34">Local demo request state</text><rect y="2580" width="1320" height="288" fill="#fff"/><text x="142" y="2705" fill="#17342F" font-family="Arial,sans-serif" font-size="34">Home</text><text x="430" y="2705" fill="#58706A" font-family="Arial,sans-serif" font-size="34">Find care</text><text x="705" y="2705" fill="#58706A" font-family="Arial,sans-serif" font-size="34">Visits</text><text x="980" y="2705" fill="#58706A" font-family="Arial,sans-serif" font-size="34">Profile</text></svg>
